<svg width="316" height="332" xmlns="http://www.w3.org/2000/svg" xmlns:xlink="http://www.w3.org/1999/xlink" overflow="hidden"><defs><clipPath id="clip0"><path d="M202 194 518 194 518 526 202 526Z" fill-rule="evenodd" clip-rule="evenodd"/></clipPath></defs><g clip-path="url(#clip0)" transform="translate(-202 -194)"><path d="M360 198.292C364.318 198.292 367.85 201.835 367.85 206.165L367.85 216.006C451.06 219.942 517 281.741 517 357.71 517 360.072 515.43 361.646 513.075 361.646 510.72 361.646 509.15 360.072 509.15 357.71 509.15 334.093 487.955 315.199 462.05 315.199 436.145 315.199 414.95 334.093 414.95 357.71 414.95 360.072 413.38 361.646 411.025 361.646 408.67 361.646 407.1 360.072 407.1 357.71 407.1 336.848 390.222 319.529 367.85 315.986L367.85 475.797 371.775 475.797 371.775 493.51C371.775 510.83 357.645 525 340.375 525 323.105 525 308.975 510.83 308.975 493.51 308.975 486.819 314.078 481.701 320.75 481.701 327.422 481.701 332.525 486.819 332.525 493.51 332.525 497.84 336.057 501.383 340.375 501.383 344.693 501.383 348.225 497.84 348.225 493.51L348.225 475.797 352.15 475.797 352.15 315.986C329.777 319.135 312.9 336.848 312.9 357.71 312.9 360.072 311.33 361.646 308.975 361.646 306.62 361.646 305.05 360.072 305.05 357.71 305.05 334.093 283.855 315.199 257.95 315.199 232.045 315.199 210.85 334.093 210.85 357.71 210.85 360.072 209.28 361.646 206.925 361.646 204.57 361.646 203 360.072 203 357.71 203 281.741 268.94 219.942 352.15 216.006L352.15 206.165C352.15 201.835 355.682 198.292 360 198.292ZM320.663 195 321.305 195 320.306 196.409Z" fill-rule="evenodd"/></g></svg>