<svg width="480" height="380" xmlns="http://www.w3.org/2000/svg" xmlns:xlink="http://www.w3.org/1999/xlink" overflow="hidden"><defs><clipPath id="clip0"><path d="M120 170 600 170 600 550 120 550Z" fill-rule="evenodd" clip-rule="evenodd"/></clipPath></defs><g clip-path="url(#clip0)" transform="translate(-120 -170)"><path d="M199.343 455.756 217.227 455.756 233.766 523.256 234.618 523.256 252.278 455.756 268.548 455.756 286.253 523.301 287.059 523.301 303.598 455.756 321.482 455.756 295.575 547.61 279.171 547.61 260.794 483.159 260.076 483.159 241.655 547.61 225.25 547.61ZM157.126 454.5C163.681 454.54 169.412 455.681 174.318 457.924 179.224 460.166 183.063 463.271 185.832 467.238 188.602 471.204 190.06 475.794 190.205 481.007L174.204 481.007C173.729 477.075 171.977 474.029 168.948 471.868 165.919 469.708 161.904 468.613 156.902 468.583 151.663 468.65 147.597 469.783 144.705 471.98 141.813 474.178 140.336 477.037 140.273 480.558 140.298 483.096 141.075 485.192 142.604 486.847 144.133 488.503 146.085 489.831 148.461 490.834 150.836 491.836 153.307 492.627 155.871 493.206L164.477 495.359C167.961 496.165 171.305 497.257 174.511 498.636 177.717 500.014 180.589 501.751 183.129 503.847 185.668 505.943 187.681 508.47 189.166 511.429 190.652 514.389 191.416 517.852 191.46 521.821 191.423 527.253 190.037 532.001 187.301 536.063 184.566 540.125 180.61 543.288 175.434 545.552 170.258 547.815 163.991 548.964 156.633 549 149.475 548.986 143.278 547.873 138.042 545.661 132.806 543.449 128.721 540.223 125.786 535.983 122.851 531.743 121.256 526.574 121 520.475L137.36 520.475C137.615 523.687 138.599 526.353 140.31 528.47 142.021 530.588 144.273 532.17 147.065 533.216 149.857 534.262 153.001 534.784 156.499 534.782 160.139 534.766 163.327 534.216 166.063 533.131 168.798 532.047 170.934 530.526 172.469 528.57 174.004 526.613 174.791 524.319 174.831 521.686 174.743 518.192 173.227 515.492 170.282 513.585 167.337 511.678 163.355 510.132 158.337 508.949L147.893 506.258C142.836 504.969 138.483 503.236 134.835 501.058 131.187 498.881 128.378 496.187 126.409 492.978 124.439 489.769 123.443 485.973 123.42 481.59 123.465 476.144 124.944 471.398 127.856 467.351 130.768 463.303 134.753 460.158 139.812 457.915 144.87 455.672 150.642 454.534 157.126 454.5ZM221.241 171 599 171 410.121 549Z" fill-rule="evenodd"/></g></svg>