<svg width="2060" height="380" xmlns="http://www.w3.org/2000/svg" xmlns:xlink="http://www.w3.org/1999/xlink" overflow="hidden"><defs><clipPath id="clip0"><path d="M-670 170 1390 170 1390 550-670 550Z" fill-rule="evenodd" clip-rule="evenodd"/></clipPath></defs><g clip-path="url(#clip0)" transform="translate(670 -170)"><path d="M1328.93 455.756 1388.64 455.756 1388.64 469.704 1345.56 469.704 1345.56 494.641 1385.55 494.641 1385.55 508.59 1345.56 508.59 1345.56 533.661 1389 533.661 1389 547.61 1328.93 547.61ZM2.71765 455.756 20.6037 455.756 37.1449 523.256 37.9966 523.256 55.6586 455.756 71.9308 455.756 89.6376 523.301 90.4443 523.301 106.985 455.756 124.872 455.756 98.9615 547.61 82.5547 547.61 64.1757 483.159 63.4584 483.159 45.0345 547.61 28.6279 547.61ZM1280.12 454.5C1286.68 454.54 1292.41 455.681 1297.31 457.924 1302.22 460.166 1306.06 463.271 1308.83 467.238 1311.6 471.204 1313.06 475.794 1313.2 481.007L1297.2 481.007C1296.73 477.075 1294.97 474.029 1291.94 471.868 1288.91 469.708 1284.9 468.613 1279.9 468.583 1274.66 468.65 1270.59 469.783 1267.7 471.98 1264.81 474.178 1263.33 477.037 1263.27 480.558 1263.29 483.096 1264.07 485.192 1265.6 486.847 1267.13 488.503 1269.08 489.831 1271.45 490.834 1273.83 491.836 1276.3 492.627 1278.87 493.206L1287.47 495.359C1290.96 496.165 1294.3 497.257 1297.51 498.636 1300.71 500.014 1303.59 501.751 1306.13 503.847 1308.67 505.943 1310.68 508.47 1312.16 511.429 1313.65 514.389 1314.41 517.852 1314.46 521.821 1314.42 527.253 1313.04 532.001 1310.3 536.063 1307.56 540.125 1303.61 543.288 1298.43 545.552 1293.25 547.815 1286.99 548.964 1279.63 549 1272.47 548.986 1266.27 547.873 1261.03 545.661 1255.8 543.449 1251.71 540.223 1248.78 535.983 1245.84 531.743 1244.25 526.574 1243.99 520.475L1260.35 520.475C1260.61 523.687 1261.59 526.353 1263.3 528.47 1265.01 530.588 1267.27 532.17 1270.06 533.216 1272.85 534.262 1276 534.784 1279.49 534.782 1283.13 534.766 1286.32 534.216 1289.06 533.131 1291.79 532.047 1293.93 530.526 1295.46 528.57 1297 526.613 1297.79 524.319 1297.83 521.686 1297.74 518.192 1296.22 515.492 1293.28 513.585 1290.33 511.678 1286.35 510.132 1281.33 508.949L1270.89 506.258C1265.83 504.969 1261.48 503.236 1257.83 501.058 1254.18 498.881 1251.37 496.187 1249.4 492.978 1247.43 489.769 1246.43 485.973 1246.41 481.59 1246.46 476.144 1247.93 471.398 1250.85 467.351 1253.76 463.303 1257.75 460.158 1262.8 457.915 1267.86 455.672 1273.64 454.534 1280.12 454.5ZM876.894 454.5 938.323 454.5 938.323 468.85 894.004 468.85 894.004 494.506 935.141 494.506 935.141 508.856 894.004 508.856 894.004 534.65 938.692 534.65 938.692 549 876.894 549ZM780.224 454.5 795.535 454.5 839.993 518.915 840.823 518.915 840.823 454.5 857.841 454.5 857.841 549 842.622 549 798.118 484.631 797.334 484.631 797.334 549 780.224 549ZM-39.5035 454.5C-32.9481 454.54-27.2169 455.681-22.3098 457.924-17.4031 460.166-13.5645 463.271-10.7944 467.238-8.02417 471.204-6.56641 475.794-6.42139 481.007L-22.4244 481.007C-22.8988 477.075-24.6508 474.029-27.6805 471.868-30.7101 469.708-34.7258 468.613-39.7277 468.583-44.9677 468.65-49.0341 469.783-51.9265 471.98-54.8185 474.178-56.2959 477.037-56.3585 480.558-56.3337 483.096-55.5568 485.192-54.0276 486.847-52.4985 488.503-50.546 489.831-48.1702 490.834-45.7943 491.836-43.3239 492.627-40.7588 493.206L-32.1519 495.359C-28.668 496.165-25.3229 497.257-22.117 498.636-18.911 500.014-16.0382 501.751-13.4982 503.847-10.9584 505.943-8.94568 508.47-7.4599 511.429-5.97418 514.389-5.20966 517.852-5.16602 521.821-5.20251 527.253-6.58893 532.001-9.32513 536.063-12.061 540.125-16.0175 543.288-21.1942 545.552-26.3709 547.815-32.6384 548.964-39.9968 549-47.1556 548.986-53.3535 547.873-58.59 545.661-63.8265 543.449-67.9123 540.223-70.8477 535.983-73.7829 531.743-75.3785 526.574-75.6342 520.475L-59.2723 520.475C-59.0169 523.687-58.0334 526.353-56.3221 528.47-54.6106 530.588-52.3587 532.17-49.5664 533.216-46.7742 534.262-43.6292 534.784-40.1312 534.782-36.4905 534.766-33.3022 534.216-30.5663 533.131-27.8304 532.047-25.6949 530.526-24.1595 528.57-22.624 526.613-21.8365 524.319-21.797 521.686-21.8847 518.192-23.4013 515.492-26.3468 513.585-29.2922 511.678-33.2745 510.132-38.2933 508.949L-48.738 506.258C-53.7959 504.969-58.1492 503.236-61.7975 501.058-65.446 498.881-68.2551 496.187-70.225 492.978-72.1949 489.769-73.191 485.973-73.2136 481.59-73.1686 476.144-71.6897 471.398-68.7772 467.351-65.865 463.303-61.8792 460.158-56.82 457.915-51.7609 455.672-45.989 454.534-39.5035 454.5ZM-579.11 454.5-560.708 454.5-543.69 523.945-542.814 523.945-524.644 454.5-507.903 454.5-489.686 523.991-488.856 523.991-471.838 454.5-453.437 454.5-480.093 549-496.972 549-515.881 482.693-516.619 482.693-535.574 549-552.453 549ZM-669 454.5-653.689 454.5-609.23 518.915-608.4 518.915-608.4 454.5-591.383 454.5-591.383 549-606.602 549-651.106 484.631-651.89 484.631-651.89 549-669 549ZM938.692 360 1127.59 360 1316.49 360 1127.59 549ZM591.323 360 780.224 549 402.421 549ZM938.692 171 1316.49 171 1127.59 360ZM591.323 171 780.224 360 591.323 360 402.421 360ZM24.6187 171 402.421 171 213.52 549ZM-264.535 171-75.6342 549-453.437 549Z" fill-rule="evenodd"/></g></svg>