<svg width="595" height="380" xmlns="http://www.w3.org/2000/svg" xmlns:xlink="http://www.w3.org/1999/xlink" overflow="hidden"><defs><clipPath id="clip0"><path d="M63 170 658 170 658 550 63 550Z" fill-rule="evenodd" clip-rule="evenodd"/></clipPath></defs><g clip-path="url(#clip0)" transform="translate(-63 -170)"><path d="M152.987 454.5 171.407 454.5 188.443 523.945 189.321 523.945 207.511 454.5 224.27 454.5 242.506 523.991 243.337 523.991 260.373 454.5 278.794 454.5 252.109 549 235.211 549 216.282 482.693 215.544 482.693 196.569 549 179.671 549ZM63 454.5 78.3278 454.5 122.833 518.915 123.664 518.915 123.664 454.5 140.7 454.5 140.7 549 125.465 549 80.9132 484.631 80.1283 484.631 80.1283 549 63 549ZM467.897 171 657 549 278.794 549Z" fill-rule="evenodd"/></g></svg>