<svg width="452" height="380" xmlns="http://www.w3.org/2000/svg" xmlns:xlink="http://www.w3.org/1999/xlink" overflow="hidden"><defs><clipPath id="clip0"><path d="M134 170 586 170 586 550 134 550Z" fill-rule="evenodd" clip-rule="evenodd"/></clipPath></defs><g clip-path="url(#clip0)" transform="translate(-134 -170)"><path d="M524.973 455.756 584.642 455.756 584.642 469.704 541.592 469.704 541.592 494.641 581.551 494.641 581.551 508.59 541.592 508.59 541.592 533.661 585 533.661 585 547.61 524.973 547.61ZM476.195 454.5C482.746 454.54 488.474 455.681 493.377 457.924 498.281 460.166 502.117 463.271 504.885 467.238 507.653 471.204 509.11 475.794 509.255 481.007L493.263 481.007C492.789 477.075 491.038 474.029 488.01 471.868 484.983 469.708 480.97 468.613 475.971 468.583 470.735 468.65 466.671 469.783 463.781 471.98 460.891 474.178 459.414 477.037 459.352 480.558 459.377 483.096 460.153 485.192 461.681 486.847 463.209 488.503 465.16 489.831 467.535 490.834 469.909 491.836 472.377 492.627 474.941 493.206L483.542 495.359C487.023 496.165 490.366 497.257 493.57 498.636 496.774 500.014 499.645 501.751 502.183 503.847 504.721 505.943 506.732 508.47 508.217 511.429 509.702 514.389 510.466 517.852 510.509 521.821 510.473 527.253 509.087 532.001 506.353 536.063 503.619 540.125 499.665 543.288 494.492 545.552 489.319 547.815 483.056 548.964 475.702 549 468.548 548.986 462.355 547.873 457.122 545.661 451.889 543.449 447.806 540.223 444.872 535.983 441.939 531.743 440.345 526.574 440.089 520.475L456.44 520.475C456.695 523.687 457.678 526.353 459.388 528.47 461.099 530.588 463.349 532.17 466.139 533.216 468.93 534.262 472.073 534.784 475.568 534.782 479.206 534.766 482.392 534.216 485.126 533.131 487.86 532.047 489.994 530.526 491.529 528.57 493.063 526.613 493.85 524.319 493.89 521.686 493.802 518.192 492.286 515.492 489.343 513.585 486.399 511.678 482.42 510.132 477.405 508.949L466.967 506.258C461.913 504.969 457.562 503.236 453.916 501.058 450.271 498.881 447.463 496.187 445.495 492.978 443.526 489.769 442.531 485.973 442.508 481.59 442.553 476.144 444.031 471.398 446.941 467.351 449.852 463.303 453.835 460.158 458.891 457.915 463.946 455.672 469.714 454.534 476.195 454.5ZM135 360 323.772 360 512.545 360 323.772 549ZM135 171 512.545 171 323.772 360Z" fill-rule="evenodd"/></g></svg>