<svg width="538" height="380" xmlns="http://www.w3.org/2000/svg" xmlns:xlink="http://www.w3.org/1999/xlink" overflow="hidden"><defs><clipPath id="clip0"><path d="M91 170 629 170 629 550 91 550Z" fill-rule="evenodd" clip-rule="evenodd"/></clipPath></defs><g clip-path="url(#clip0)" transform="translate(-91 -170)"><path d="M566.232 454.5 627.631 454.5 627.631 468.85 583.334 468.85 583.334 494.506 624.451 494.506 624.451 508.856 583.334 508.856 583.334 534.65 628 534.65 628 549 566.232 549ZM469.611 454.5 484.915 454.5 529.351 518.915 530.18 518.915 530.18 454.5 547.19 454.5 547.19 549 531.978 549 487.496 484.631 486.713 484.631 486.713 549 469.611 549ZM280.806 360 469.611 549 92 549ZM280.806 171 469.611 360 280.806 360 92 360Z" fill-rule="evenodd"/></g></svg>