<svg width="1702" height="473" xmlns="http://www.w3.org/2000/svg" xmlns:xlink="http://www.w3.org/1999/xlink" overflow="hidden"><defs><clipPath id="clip0"><path d="M661 798 2363 798 2363 1271 661 1271Z" fill-rule="evenodd" clip-rule="evenodd"/></clipPath></defs><g clip-path="url(#clip0)" transform="translate(-661 -798)"><path d="M1221.24 1122.26 1221.24 1186.71 1379.6 1186.71 1379.6 1122.26ZM2152.24 1114.49C2143.81 1125.6 2134.78 1136.57 2125.14 1147.38 2115.5 1158.19 2105.58 1168.79 2095.39 1179.16L2221.43 1172.25C2216.57 1166.06 2211.63 1160.05 2206.61 1154.23 2201.59 1148.41 2196.54 1142.9 2191.46 1137.69L2232 1114.49ZM739.521 1074.21 739.521 1123.66 774.812 1117.66 774.812 1074.21ZM1155.51 1059.29 1448.42 1059.29 1448.42 1269.02 1379.6 1269.02 1379.6 1253.15 1221.24 1253.15 1221.24 1271 1155.51 1271ZM1966.72 1044.87 2333.8 1044.87 2333.8 1114.49 2254.92 1114.49C2273.09 1133.21 2290.17 1153.04 2306.15 1173.98 2322.12 1194.92 2335.01 1214.26 2344.81 1231.99L2286.65 1271C2284.19 1265.55 2281.27 1259.79 2277.89 1253.72 2274.5 1247.65 2270.81 1241.4 2266.81 1234.96 2214.81 1238.97 2172.54 1242.24 2139.99 1244.77 2107.44 1247.3 2081.98 1249.46 2063.61 1251.25 2045.24 1253.04 2031.32 1254.83 2021.85 1256.62 2012.38 1258.41 2004.73 1260.57 1998.89 1263.1 1996.91 1254.67 1993.81 1243.27 1989.58 1228.91 1985.34 1214.55 1981.25 1201.92 1977.29 1191.01 1983.51 1189.56 1989.36 1186.91 1994.86 1183.05 2000.36 1179.2 2006.55 1173.95 2013.43 1167.32 2018.23 1163.48 2024.93 1156.96 2033.53 1147.75 2042.14 1138.54 2051.59 1127.46 2061.9 1114.49L1966.72 1114.49ZM739.521 973.314 739.521 1015.77 774.812 1015.77 774.812 973.314ZM1301.96 903.607C1283.44 923.935 1264.03 942.776 1243.73 960.129L1362.4 960.129C1352.68 952.227 1342.78 943.612 1332.68 934.285 1322.58 924.957 1312.34 914.732 1301.96 903.607ZM2149.15 894.773C2139.89 904.421 2130.33 913.761 2120.46 922.792 2110.59 931.823 2100.47 940.422 2090.1 948.59L2213.05 948.59C2201.33 939.898 2190.07 930.99 2179.29 921.867 2168.5 912.742 2158.46 903.711 2149.15 894.773ZM739.521 871.922 739.521 914.877 774.812 914.877 774.812 871.922ZM2145.19 798 2202.48 829.106C2197.56 836.429 2192.41 843.506 2187.05 850.336 2209.9 869.551 2236.8 888.025 2267.75 905.758 2298.7 923.492 2330.12 937.769 2362 948.59 2354.59 956.294 2346.6 966.19 2338.04 978.276 2329.47 990.362 2322.48 1001.37 2317.05 1011.29 2306.22 1006.34 2295.27 1000.82 2284.22 994.754 2273.17 988.685 2262.22 982.185 2251.39 975.251L2251.39 1014.26 2046.92 1014.26 2046.92 979.202C2036.54 986.114 2025.9 992.656 2015.03 998.827 2004.15 1005 1993.18 1010.8 1982.14 1016.23 1977.11 1006.44 1970.2 995.166 1961.43 982.411 1952.65 969.656 1944.43 959.37 1936.75 951.553 1964.45 940.541 1991.41 927.014 2017.62 910.974 2043.84 894.934 2067.92 877.275 2089.88 857.998 2111.83 838.721 2130.27 818.722 2145.19 798ZM1684.13 798 1756.44 798C1756.28 818.802 1755.92 840.073 1755.36 861.812 1754.81 883.552 1753.66 905.448 1751.92 927.5L1925.45 927.5 1925.45 1003 1771.8 1003C1786.33 1048.67 1807.1 1088.71 1834.11 1123.13 1861.12 1157.54 1895.33 1183.83 1936.75 1202 1928.25 1210.56 1919.38 1221.44 1910.14 1234.63 1900.91 1247.81 1893.51 1259.94 1887.94 1271 1848.49 1250.67 1815.55 1224.08 1789.14 1191.25 1762.74 1158.42 1740.99 1119.83 1723.9 1075.5 1711.42 1114.27 1692.21 1150.35 1666.28 1183.75 1640.35 1217.15 1605.33 1246.23 1561.21 1271 1555.81 1260.67 1548.65 1249.83 1539.74 1238.5 1530.84 1227.17 1521.42 1217.33 1511.5 1209 1560.28 1183.85 1596.83 1153.52 1621.15 1118 1645.46 1082.48 1661.79 1044.15 1670.12 1003L1520.54 1003 1520.54 927.5 1680.97 927.5C1682.46 905.448 1683.32 883.552 1683.57 861.812 1683.81 840.073 1684 818.802 1684.13 798ZM1298.88 798 1356.22 831.219C1351.37 838.656 1346.52 846.093 1341.67 853.53 1371.21 881.946 1400.12 904.567 1428.4 921.394 1456.68 938.22 1484.38 951.297 1511.5 960.625 1503.09 969.343 1494.88 979.672 1486.85 991.613 1478.83 1003.55 1472.49 1015.37 1467.83 1027.06 1457.93 1022.13 1448.06 1016.88 1438.22 1011.32 1428.37 1005.76 1418.39 999.773 1408.28 993.348L1408.28 1026.07 1187.71 1026.07 1187.71 1002.77C1169.62 1015.08 1151.54 1026.15 1133.45 1035.99 1127.98 1025.27 1121.05 1013.86 1112.66 1001.78 1104.27 989.691 1095.47 978.784 1086.25 969.053 1113.27 957.301 1140.01 943.069 1166.47 926.359 1192.93 909.648 1217.58 890.569 1240.42 869.121 1263.25 847.672 1282.74 823.966 1298.88 798ZM908.916 798C917.747 809.082 926.11 821.132 934.005 834.149 941.899 847.167 947.946 859.092 952.146 869.924L913.768 892.9 960.087 892.9C966.409 878.998 972.512 863.597 978.394 846.698 984.275 829.799 989.054 813.9 992.73 798.999L1057.58 816.98C1051.59 830.57 1045.58 843.847 1039.55 856.813 1033.51 869.778 1027.61 881.807 1021.85 892.9L1067.28 892.9 1067.28 958.331 988.319 958.331 988.319 1016.27 1078.31 1016.27 1078.31 1081.7 984.79 1081.7 984.349 1082.7C993.117 1109.99 1005.91 1134.2 1022.73 1155.31 1039.55 1176.42 1060.72 1192.51 1086.25 1203.57 1078.9 1211.02 1071.32 1220.47 1063.53 1231.92 1055.74 1243.36 1049.49 1254.06 1044.78 1264.01 1025.88 1253.72 1009.32 1240.71 995.101 1224.99 980.884 1209.26 968.624 1191.14 958.322 1170.61 949.821 1188.68 938.591 1206.22 924.631 1223.24 910.671 1240.25 893.375 1256.17 872.743 1271 867.844 1263.46 861.32 1255.19 853.168 1246.21 845.016 1237.23 836.837 1229.35 828.629 1222.55L828.629 1264.51 774.812 1264.51 774.812 1182.59 673.793 1203.07 661 1136.14 683.498 1132.65 683.498 871.922 667.617 871.922 667.617 807.49 842.746 807.49 842.746 871.922 828.629 871.922 828.629 1108.17 857.303 1103.18 861.273 1165.11 828.629 1171.61 828.629 1217.06C858.149 1197.18 879.727 1175.37 893.366 1151.63 907.004 1127.88 915.569 1104.57 919.062 1081.7L847.598 1081.7 847.598 1016.27 923.473 1016.27 923.473 958.331 854.656 958.331 854.656 892.9 895.682 892.9C891.344 882.161 885.793 870.798 879.029 858.811 872.265 846.824 865.17 835.71 857.744 825.471Z" fill-rule="evenodd"/></g></svg>