<svg width="474" height="447" xmlns="http://www.w3.org/2000/svg" xmlns:xlink="http://www.w3.org/1999/xlink" overflow="hidden"><defs><clipPath id="clip0"><path d="M123 137 597 137 597 584 123 584Z" fill-rule="evenodd" clip-rule="evenodd"/></clipPath></defs><g clip-path="url(#clip0)" transform="translate(-123 -137)"><path d="M316.539 495.307C316.539 495.307 325.575 549.623 318.439 564.953 311.115 580.685 292.808 587.36 277.101 580.023 261.394 572.687 254.731 554.349 262.055 538.617 269.379 522.883 316.539 495.307 316.539 495.307ZM394.331 495.307C394.331 495.307 403.367 549.623 396.23 564.952 388.906 580.685 370.599 587.36 354.892 580.023 339.185 572.687 332.522 554.349 339.846 538.616 347.171 522.883 394.331 495.307 394.331 495.307ZM238.748 495.307C238.748 495.307 247.784 549.623 240.647 564.952 233.323 580.685 215.016 587.36 199.309 580.023 183.602 572.687 176.939 554.349 184.263 538.616 191.588 522.883 238.748 495.307 238.748 495.307ZM472.122 491.571C472.122 491.571 481.158 545.887 474.022 561.216 466.697 576.949 448.391 583.624 432.684 576.287 416.977 568.951 410.313 550.613 417.638 534.88 424.962 519.147 472.122 491.571 472.122 491.571ZM347.51 403.878C347.51 403.878 356.546 458.194 349.41 473.523 342.085 489.256 323.779 495.93 308.072 488.594 292.365 481.258 285.701 462.92 293.026 447.187 300.35 431.454 347.51 403.878 347.51 403.878ZM425.301 403.878C425.301 403.878 434.338 458.194 427.201 473.523 419.877 489.256 401.57 495.93 385.863 488.594 370.156 481.258 363.493 462.92 370.817 447.187 378.142 431.454 425.301 403.878 425.301 403.878ZM269.719 403.878C269.719 403.878 278.755 458.194 271.618 473.523 264.294 489.256 245.987 495.93 230.28 488.594 214.573 481.258 207.91 462.92 215.234 447.187 222.559 431.454 269.719 403.878 269.719 403.878ZM503.093 400.142C503.093 400.142 512.129 454.458 504.993 469.787 497.668 485.52 479.361 492.194 463.654 484.858 447.947 477.522 441.284 459.184 448.609 443.451 455.933 427.718 503.093 400.142 503.093 400.142ZM330.024 137.258C363.485 139.681 394.46 159.052 410.857 189.78 436.417 181.476 464.051 185.628 485.467 201.544 507.573 216.767 520.008 242.37 520.008 268.666L520.008 269.358C539.352 265.898 558.695 271.434 573.203 283.889 587.71 296.345 596 314.336 596 333.712 596 369.003 569.057 398.066 533.134 400.142L503.093 400.142 201.534 400.142C170.447 398.066 143.504 379.382 131.069 351.011 118.634 322.64 122.779 290.117 142.123 265.898 160.775 241.678 191.863 229.915 222.259 235.451 222.95 189.78 254.728 150.337 298.942 139.957 304.468 138.573 310.027 137.687 315.566 137.273 320.413 136.911 325.244 136.912 330.024 137.258Z" fill="#E4DB20" fill-rule="evenodd"/></g></svg>